<svg width="100" height="100" viewBox="0 0 100 100" fill="none" xmlns="http://www.w3.org/2000/svg">
<path fill-rule="evenodd" clip-rule="evenodd" d="M66.5228 16.6302C75.7074 16.6303 83.1535 24.0764 83.1536 33.2611V66.5228C83.1535 75.7074 75.7074 83.1535 66.5228 83.1536H33.2611C24.0764 83.1535 16.6303 75.7074 16.6302 66.5228V33.2611C16.6303 24.0764 24.0764 16.6303 33.2611 16.6302H66.5228ZM66.5228 91.4681C80.2998 91.468 91.468 80.2999 91.4681 66.5228V33.2611C91.468 19.484 80.2999 8.31588 66.5228 8.31575H33.2611C19.484 8.31586 8.31585 19.4839 8.31575 33.2611V66.5228C8.31589 80.2999 19.484 91.468 33.2611 91.4681H66.5228ZM45.7339 54.0493V66.523C45.7342 68.819 47.5961 70.6802 49.8921 70.6802C52.1881 70.6801 54.0491 68.8189 54.0494 66.523V54.0493H66.523C68.8189 54.0491 70.6801 52.1881 70.6802 49.8921C70.6802 47.5961 68.819 45.7342 66.523 45.7339H54.0494V33.2613C54.0494 30.9651 52.1882 29.1042 49.8921 29.104C47.5959 29.104 45.7339 30.965 45.7339 33.2613V45.7339H33.2613C30.9651 45.7339 29.104 47.5959 29.104 49.8921C29.1042 52.1882 30.9651 54.0493 33.2613 54.0493H45.7339Z" fill="black"/>
</svg>
