<svg width="100" height="100" viewBox="0 0 100 100" fill="none" xmlns="http://www.w3.org/2000/svg">
<path fill-rule="evenodd" clip-rule="evenodd" d="M37.1207 80.6648C37.8509 80.9684 38.5943 81.2468 39.3497 81.4989C42.6626 82.6042 46.2073 83.2029 49.8919 83.2029C68.2753 83.2029 83.178 68.3002 83.178 49.9168C83.178 31.5333 68.2753 16.6306 49.8919 16.6306C31.5085 16.6306 16.6058 31.5333 16.6058 49.9168C16.6058 60.1874 21.2575 69.3717 28.569 75.4776C29.4569 76.2191 30.3841 76.9152 31.347 77.5624L30.8185 83.6035L37.1207 80.6648ZM8.29044 49.9168C8.29044 62.4882 13.872 73.7536 22.6666 81.3726L22.5348 82.8788L21.2795 97.2265L34.3327 91.1398L37.5306 89.6486C41.4433 90.8648 45.5974 91.5182 49.8919 91.5182C72.8677 91.5182 91.4933 72.8926 91.4933 49.9168C91.4933 26.9409 72.8677 8.31531 49.8919 8.31531C26.916 8.31531 8.29044 26.9409 8.29044 49.9168ZM30.5146 59.8816L41.6148 40.3451C41.8675 39.9004 42.4579 39.787 42.8573 40.1065L54.5695 49.4763C54.8732 49.7193 55.3047 49.7193 55.6084 49.4763L68.5147 39.1513C68.8875 38.853 69.3869 39.3157 69.118 39.7101L55.5946 59.5444C55.3218 59.9445 54.7662 60.0278 54.3881 59.7253L42.6656 50.3474C42.3398 50.0867 41.8713 50.1079 41.5703 50.3968L31.164 60.3869C30.8181 60.719 30.2777 60.2985 30.5146 59.8816Z" fill="black"/>
</svg>
