<svg width="84" height="84" viewBox="0 0 84 84" fill="none" xmlns="http://www.w3.org/2000/svg">
<path fill-rule="evenodd" clip-rule="evenodd" d="M74.314 20.7883C72.4679 13.6151 65.9563 8.31456 58.207 8.31445H51.645L58.5743 20.7883H74.314ZM49.0621 20.7883L42.1317 8.31445H30.8567L37.786 20.7883H49.0621ZM8.8383 20.7883C10.4062 14.6962 15.3392 9.95481 21.5376 8.66395L28.2738 20.7883H8.8383ZM74.8376 24.8489V29.1027H8.31445V58.207C8.31459 67.3917 15.7606 74.8378 24.9453 74.8379H58.207C67.3917 74.8378 74.8378 67.3917 74.8379 58.207V24.9453L74.8376 24.8489ZM83.1523 58.207C83.1522 71.9841 71.9841 83.1522 58.207 83.1523H24.9453C11.1682 83.1522 0.000138129 71.9841 0 58.207V24.9453C9.99957e-05 11.1682 11.1682 0.000110297 24.9453 0H58.207C71.9841 0.000129891 83.1522 11.1682 83.1523 24.9453V58.207ZM52.3353 50.2838C53.1427 49.7993 53.1427 48.6291 52.3353 48.1447L35.2186 37.8747C34.3873 37.3759 33.3296 37.9747 33.3296 38.9442V59.4842C33.3296 60.4538 34.3873 61.0526 35.2186 60.5538L52.3353 50.2838Z" fill="black"/>
</svg>
