<svg width="100" height="100" viewBox="0 0 100 100" fill="none" xmlns="http://www.w3.org/2000/svg">
<path fill-rule="evenodd" clip-rule="evenodd" d="M49.8919 12.473C29.226 12.473 12.473 29.226 12.473 49.8919C12.473 59.8128 16.3339 68.8319 22.6351 75.5288C25.3995 70.1793 30.9822 66.5225 37.4189 66.5225H62.3649C68.8016 66.5225 74.3843 70.1793 77.1487 75.5288C83.4499 68.8319 87.3108 59.8128 87.3108 49.8919C87.3108 29.226 70.5578 12.473 49.8919 12.473ZM70.4417 81.168C69.5516 77.5341 66.2731 74.8378 62.3649 74.8378H37.4189C33.5107 74.8378 30.2322 77.5341 29.342 81.168C35.2402 85.0512 42.3022 87.3108 49.8919 87.3108C57.4816 87.3108 64.5436 85.0512 70.4417 81.168ZM4.15765 49.8919C4.15765 24.6336 24.6336 4.15765 49.8919 4.15765C75.1502 4.15765 95.6261 24.6336 95.6261 49.8919C95.6261 75.1502 75.1502 95.6261 49.8919 95.6261C24.6336 95.6261 4.15765 75.1502 4.15765 49.8919ZM49.8919 29.1036C43.0033 29.1036 37.4189 34.6879 37.4189 41.5766C37.4189 48.4652 43.0033 54.0495 49.8919 54.0495C56.7805 54.0495 62.3649 48.4652 62.3649 41.5766C62.3649 34.6879 56.7805 29.1036 49.8919 29.1036ZM29.1036 41.5766C29.1036 30.0955 38.4108 20.7883 49.8919 20.7883C61.3729 20.7883 70.6802 30.0955 70.6802 41.5766C70.6802 53.0576 61.3729 62.3649 49.8919 62.3649C38.4108 62.3649 29.1036 53.0576 29.1036 41.5766Z" fill="black"/>
</svg>
